<?xml version="1.0" ?>

<!-- Uploaded to: SVG Repo, www.svgrepo.com, Generator: SVG Repo Mixer Tools -->
<svg fill="#000000" width="100px" height="100px" viewBox="0 0 64 64" xmlns="http://www.w3.org/2000/svg">

<g data-name="23 online shop 2" id="_23_online_shop_2">

<path d="M44.31,3.5H19.69a6,6,0,0,0-6,6v45a6,6,0,0,0,6,6H44.31a6,6,0,0,0,6-6V9.5A6,6,0,0,0,44.31,3.5Zm-5.46,2-.83,3.09H25.98L25.15,5.5Zm9.46,49a4,4,0,0,1-4,4H19.69a4,4,0,0,1-4-4V52.35H48.31Zm0-4.14-.01-.01H15.7l-.01.01V9.5a4,4,0,0,1,4-4h3.39l.97,3.61a1.993,1.993,0,0,0,1.93,1.48H38.02a1.993,1.993,0,0,0,1.93-1.48l.97-3.61h3.39a4,4,0,0,1,4,4Z"/>

<path d="M34.318,54.426H29.963a1,1,0,0,0,0,2h4.355a1,1,0,0,0,0-2Z"/>

<path d="M44.57,41.88V23.35c0-.01-.01-.03-.01-.04a1.016,1.016,0,0,0-.06-.34l-.01-.01-2.22-5.4a1.52,1.52,0,0,0-1.15-.91v-2.5a1,1,0,0,0-1-1H32.07a1,1,0,0,0-1,1V16.6h-7.7a1.584,1.584,0,0,0-1.5.95l-2.22,5.41v.01a.829.829,0,0,0-.07.34c0,.01-.01.03-.01.04V41.83a1.578,1.578,0,0,0-1.15,1.51v2.88A1.575,1.575,0,0,0,20,47.79H44a1.575,1.575,0,0,0,1.58-1.57V43.34A1.576,1.576,0,0,0,44.57,41.88Zm-2-17.53v1.46a1.139,1.139,0,0,1-1.14,1.14h-.31a1.142,1.142,0,0,1-1.15-1.14V24.35ZM40.54,18.6l1.54,3.75H39.71L38.59,18.6Zm-7.47-3.45h6.05V16.6H33.07Zm2.3,9.2h2.6v1.46a1.139,1.139,0,0,1-1.14,1.14h-.32a1.139,1.139,0,0,1-1.14-1.14Zm-.09-2L34.9,18.6h1.6l1.13,3.75ZM31.25,18.6h1.64l.38,3.75H30.88Zm-.48,5.75h2.6v1.46a1.139,1.139,0,0,1-1.14,1.14h-.31a1.142,1.142,0,0,1-1.15-1.14ZM27.64,18.6h1.6l-.37,3.75H26.51Zm-1.47,5.75h2.6v1.46a1.139,1.139,0,0,1-1.14,1.14h-.31a1.142,1.142,0,0,1-1.15-1.14ZM23.6,18.6h1.95l-1.12,3.75H22.06Zm-2.03,5.75h2.6v1.46a1.139,1.139,0,0,1-1.14,1.14h-.32a1.139,1.139,0,0,1-1.14-1.14Zm0,4.38a3.125,3.125,0,0,0,1.14.22h.32a3.1,3.1,0,0,0,2.14-.86,3.109,3.109,0,0,0,2.15.86h.31a3.1,3.1,0,0,0,2.14-.86,3.109,3.109,0,0,0,2.15.86h.31a3.1,3.1,0,0,0,2.14-.86,3.1,3.1,0,0,0,2.14.86h.32a3.1,3.1,0,0,0,2.14-.86,3.109,3.109,0,0,0,2.15.86h.31a3.125,3.125,0,0,0,1.14-.22V41.77h-21ZM20.42,45.79V43.77H43.57l.01,2.02Z"/>

<path d="M33.71,35.23a2.194,2.194,0,0,1,.82,2.42A2.442,2.442,0,0,1,33,39.25v.34a1,1,0,0,1-2,0V39.1a6.684,6.684,0,0,1-.9-.54c-.12-.08-.23-.16-.35-.23a1,1,0,0,1-.32-1.38.992.992,0,0,1,1.37-.33c.14.09.28.19.43.29.34.23.7.52.98.48a.432.432,0,0,0,.4-.3.193.193,0,0,0-.08-.24l-1.86-1.37a2.193,2.193,0,0,1-.5-3.08,2.166,2.166,0,0,1,.83-.7v-.57a1,1,0,1,1,2,0v.46a2.386,2.386,0,0,1,.57.3l.75.55a1,1,0,1,1-1.19,1.61l-.74-.55a.473.473,0,0,0-.35-.08.359.359,0,0,0-.25.15.2.2,0,0,0,.07.3S33.63,35.18,33.71,35.23Z"/>

</g>

</svg>